<mxfile host="app.diagrams.net" modified="2024-04-23T01:56:37.712Z" agent="Mozilla/5.0 (Macintosh; Intel Mac OS X 10_15_7) AppleWebKit/537.36 (KHTML, like Gecko) Chrome/124.0.0.0 Safari/537.36" etag="MvUiTzO_Bsb30-JUrUD7" version="24.2.7" type="device">
  <diagram id="9khf5pBnNxR_kiDFVO9-" name="Page-1">
    <mxGraphModel dx="1683" dy="706" grid="1" gridSize="10" guides="1" tooltips="1" connect="1" arrows="1" fold="1" page="0" pageScale="1" pageWidth="827" pageHeight="1169" math="0" shadow="0">
      <root>
        <mxCell id="0" />
        <mxCell id="1" parent="0" />
        <mxCell id="ol1TH0Oiye4qKC3WjHIc-1" value="VPC (ap-south-1)" style="points=[[0,0],[0.25,0],[0.5,0],[0.75,0],[1,0],[1,0.25],[1,0.5],[1,0.75],[1,1],[0.75,1],[0.5,1],[0.25,1],[0,1],[0,0.75],[0,0.5],[0,0.25]];outlineConnect=0;gradientColor=none;html=1;whiteSpace=wrap;fontSize=12;fontStyle=0;container=1;pointerEvents=0;collapsible=0;recursiveResize=0;shape=mxgraph.aws4.group;grIcon=mxgraph.aws4.group_vpc;strokeColor=#248814;fillColor=none;verticalAlign=top;align=left;spacingLeft=30;fontColor=#AAB7B8;dashed=0;" parent="1" vertex="1">
          <mxGeometry x="435" y="80" width="620" height="240" as="geometry" />
        </mxCell>
        <mxCell id="ol1TH0Oiye4qKC3WjHIc-2" value="Public subnet" style="points=[[0,0],[0.25,0],[0.5,0],[0.75,0],[1,0],[1,0.25],[1,0.5],[1,0.75],[1,1],[0.75,1],[0.5,1],[0.25,1],[0,1],[0,0.75],[0,0.5],[0,0.25]];outlineConnect=0;gradientColor=none;html=1;whiteSpace=wrap;fontSize=12;fontStyle=0;container=1;pointerEvents=0;collapsible=0;recursiveResize=0;shape=mxgraph.aws4.group;grIcon=mxgraph.aws4.group_security_group;grStroke=0;strokeColor=#248814;fillColor=#E9F3E6;verticalAlign=top;align=left;spacingLeft=30;fontColor=#248814;dashed=0;" parent="ol1TH0Oiye4qKC3WjHIc-1" vertex="1">
          <mxGeometry x="80" y="40" width="200" height="170" as="geometry" />
        </mxCell>
        <mxCell id="ol1TH0Oiye4qKC3WjHIc-6" value="AWS Account" style="points=[[0,0],[0.25,0],[0.5,0],[0.75,0],[1,0],[1,0.25],[1,0.5],[1,0.75],[1,1],[0.75,1],[0.5,1],[0.25,1],[0,1],[0,0.75],[0,0.5],[0,0.25]];outlineConnect=0;gradientColor=none;html=1;whiteSpace=wrap;fontSize=12;fontStyle=0;container=1;pointerEvents=0;collapsible=0;recursiveResize=0;shape=mxgraph.aws4.group;grIcon=mxgraph.aws4.group_account;strokeColor=#CD2264;fillColor=none;verticalAlign=top;align=left;spacingLeft=30;fontColor=#CD2264;dashed=0;" parent="1" vertex="1">
          <mxGeometry x="370" y="50" width="800" height="380" as="geometry" />
        </mxCell>
        <mxCell id="SDpvWjmBm0CDvpZ5gvOl-2" style="edgeStyle=orthogonalEdgeStyle;rounded=0;orthogonalLoop=1;jettySize=auto;html=1;" parent="ol1TH0Oiye4qKC3WjHIc-6" source="ol1TH0Oiye4qKC3WjHIc-8" target="ol1TH0Oiye4qKC3WjHIc-5" edge="1">
          <mxGeometry relative="1" as="geometry" />
        </mxCell>
        <mxCell id="ol1TH0Oiye4qKC3WjHIc-8" value="learnaws.co.in" style="outlineConnect=0;dashed=0;verticalLabelPosition=bottom;verticalAlign=top;align=center;html=1;shape=mxgraph.aws3.route_53;fillColor=#F58536;gradientColor=none;" parent="ol1TH0Oiye4qKC3WjHIc-6" vertex="1">
          <mxGeometry x="360" y="280" width="70" height="65.5" as="geometry" />
        </mxCell>
        <mxCell id="ol1TH0Oiye4qKC3WjHIc-5" value="" style="outlineConnect=0;dashed=0;verticalLabelPosition=bottom;verticalAlign=top;align=center;html=1;shape=mxgraph.aws3.application_load_balancer;fillColor=#F58534;gradientColor=none;" parent="ol1TH0Oiye4qKC3WjHIc-6" vertex="1">
          <mxGeometry x="220" y="107" width="69" height="72" as="geometry" />
        </mxCell>
        <mxCell id="ol1TH0Oiye4qKC3WjHIc-3" value="Private subnet" style="points=[[0,0],[0.25,0],[0.5,0],[0.75,0],[1,0],[1,0.25],[1,0.5],[1,0.75],[1,1],[0.75,1],[0.5,1],[0.25,1],[0,1],[0,0.75],[0,0.5],[0,0.25]];outlineConnect=0;gradientColor=none;html=1;whiteSpace=wrap;fontSize=12;fontStyle=0;container=1;pointerEvents=0;collapsible=0;recursiveResize=0;shape=mxgraph.aws4.group;grIcon=mxgraph.aws4.group_security_group;grStroke=0;strokeColor=#147EBA;fillColor=#E6F2F8;verticalAlign=top;align=left;spacingLeft=30;fontColor=#147EBA;dashed=0;" parent="ol1TH0Oiye4qKC3WjHIc-6" vertex="1">
          <mxGeometry x="430" y="67" width="200" height="170" as="geometry" />
        </mxCell>
        <mxCell id="ol1TH0Oiye4qKC3WjHIc-4" value="" style="outlineConnect=0;dashed=0;verticalLabelPosition=bottom;verticalAlign=top;align=center;html=1;shape=mxgraph.aws3.ec2;fillColor=#F58534;gradientColor=none;" parent="ol1TH0Oiye4qKC3WjHIc-3" vertex="1">
          <mxGeometry x="46.5" y="29.5" width="76.5" height="93" as="geometry" />
        </mxCell>
        <mxCell id="ol1TH0Oiye4qKC3WjHIc-9" style="edgeStyle=orthogonalEdgeStyle;rounded=0;orthogonalLoop=1;jettySize=auto;html=1;" parent="ol1TH0Oiye4qKC3WjHIc-6" source="ol1TH0Oiye4qKC3WjHIc-4" target="ol1TH0Oiye4qKC3WjHIc-5" edge="1">
          <mxGeometry relative="1" as="geometry" />
        </mxCell>
        <mxCell id="ol1TH0Oiye4qKC3WjHIc-12" style="edgeStyle=orthogonalEdgeStyle;rounded=0;orthogonalLoop=1;jettySize=auto;html=1;entryX=0.5;entryY=1;entryDx=0;entryDy=0;entryPerimeter=0;" parent="1" source="ol1TH0Oiye4qKC3WjHIc-11" target="ol1TH0Oiye4qKC3WjHIc-8" edge="1">
          <mxGeometry relative="1" as="geometry" />
        </mxCell>
        <mxCell id="ol1TH0Oiye4qKC3WjHIc-11" value="" style="verticalLabelPosition=bottom;html=1;verticalAlign=top;align=center;strokeColor=none;fillColor=#00BEF2;shape=mxgraph.azure.user;" parent="1" vertex="1">
          <mxGeometry x="732.5" y="460" width="65" height="60" as="geometry" />
        </mxCell>
        <mxCell id="ol1TH0Oiye4qKC3WjHIc-13" value="&lt;font style=&quot;font-size: 22px;&quot;&gt;Simple RP&lt;/font&gt;" style="text;html=1;align=center;verticalAlign=middle;resizable=0;points=[];autosize=1;strokeColor=none;fillColor=none;" parent="1" vertex="1">
          <mxGeometry x="205" y="50" width="130" height="40" as="geometry" />
        </mxCell>
        <mxCell id="ol1TH0Oiye4qKC3WjHIc-37" value="&lt;font style=&quot;font-size: 22px;&quot;&gt;Weighted RP&lt;/font&gt;" style="text;html=1;align=center;verticalAlign=middle;resizable=0;points=[];autosize=1;strokeColor=none;fillColor=none;" parent="1" vertex="1">
          <mxGeometry x="50" y="822" width="150" height="40" as="geometry" />
        </mxCell>
        <mxCell id="ol1TH0Oiye4qKC3WjHIc-46" value="" style="group" parent="1" vertex="1" connectable="0">
          <mxGeometry x="55" y="870" width="1535" height="690" as="geometry" />
        </mxCell>
        <mxCell id="ol1TH0Oiye4qKC3WjHIc-26" value="&lt;font color=&quot;#ff0000&quot;&gt;VPC (ap-south-1)&lt;/font&gt;" style="points=[[0,0],[0.25,0],[0.5,0],[0.75,0],[1,0],[1,0.25],[1,0.5],[1,0.75],[1,1],[0.75,1],[0.5,1],[0.25,1],[0,1],[0,0.75],[0,0.5],[0,0.25]];outlineConnect=0;gradientColor=none;html=1;whiteSpace=wrap;fontSize=12;fontStyle=0;container=1;pointerEvents=0;collapsible=0;recursiveResize=0;shape=mxgraph.aws4.group;grIcon=mxgraph.aws4.group_vpc;strokeColor=#248814;fillColor=none;verticalAlign=top;align=left;spacingLeft=30;fontColor=#AAB7B8;dashed=0;" parent="ol1TH0Oiye4qKC3WjHIc-46" vertex="1">
          <mxGeometry x="100" y="50" width="685" height="280" as="geometry" />
        </mxCell>
        <mxCell id="ol1TH0Oiye4qKC3WjHIc-27" value="Public subnet" style="points=[[0,0],[0.25,0],[0.5,0],[0.75,0],[1,0],[1,0.25],[1,0.5],[1,0.75],[1,1],[0.75,1],[0.5,1],[0.25,1],[0,1],[0,0.75],[0,0.5],[0,0.25]];outlineConnect=0;gradientColor=none;html=1;whiteSpace=wrap;fontSize=12;fontStyle=0;container=1;pointerEvents=0;collapsible=0;recursiveResize=0;shape=mxgraph.aws4.group;grIcon=mxgraph.aws4.group_security_group;grStroke=0;strokeColor=#248814;fillColor=#E9F3E6;verticalAlign=top;align=left;spacingLeft=30;fontColor=#248814;dashed=0;" parent="ol1TH0Oiye4qKC3WjHIc-26" vertex="1">
          <mxGeometry x="80" y="40" width="240" height="200" as="geometry" />
        </mxCell>
        <mxCell id="ol1TH0Oiye4qKC3WjHIc-28" value="" style="outlineConnect=0;dashed=0;verticalLabelPosition=bottom;verticalAlign=top;align=center;html=1;shape=mxgraph.aws3.application_load_balancer;fillColor=#F58534;gradientColor=none;" parent="ol1TH0Oiye4qKC3WjHIc-27" vertex="1">
          <mxGeometry x="86" y="64" width="69" height="72" as="geometry" />
        </mxCell>
        <mxCell id="ol1TH0Oiye4qKC3WjHIc-29" value="Private subnet" style="points=[[0,0],[0.25,0],[0.5,0],[0.75,0],[1,0],[1,0.25],[1,0.5],[1,0.75],[1,1],[0.75,1],[0.5,1],[0.25,1],[0,1],[0,0.75],[0,0.5],[0,0.25]];outlineConnect=0;gradientColor=none;html=1;whiteSpace=wrap;fontSize=12;fontStyle=0;container=1;pointerEvents=0;collapsible=0;recursiveResize=0;shape=mxgraph.aws4.group;grIcon=mxgraph.aws4.group_security_group;grStroke=0;strokeColor=#147EBA;fillColor=#E6F2F8;verticalAlign=top;align=left;spacingLeft=30;fontColor=#147EBA;dashed=0;" parent="ol1TH0Oiye4qKC3WjHIc-26" vertex="1">
          <mxGeometry x="400" y="40" width="240" height="200" as="geometry" />
        </mxCell>
        <mxCell id="ol1TH0Oiye4qKC3WjHIc-30" value="" style="outlineConnect=0;dashed=0;verticalLabelPosition=bottom;verticalAlign=top;align=center;html=1;shape=mxgraph.aws3.ec2;fillColor=#F58534;gradientColor=none;" parent="ol1TH0Oiye4qKC3WjHIc-29" vertex="1">
          <mxGeometry x="82" y="54" width="76.5" height="93" as="geometry" />
        </mxCell>
        <mxCell id="ol1TH0Oiye4qKC3WjHIc-31" style="edgeStyle=orthogonalEdgeStyle;rounded=0;orthogonalLoop=1;jettySize=auto;html=1;" parent="ol1TH0Oiye4qKC3WjHIc-26" source="ol1TH0Oiye4qKC3WjHIc-30" target="ol1TH0Oiye4qKC3WjHIc-28" edge="1">
          <mxGeometry relative="1" as="geometry" />
        </mxCell>
        <mxCell id="ol1TH0Oiye4qKC3WjHIc-32" value="AWS Account" style="points=[[0,0],[0.25,0],[0.5,0],[0.75,0],[1,0],[1,0.25],[1,0.5],[1,0.75],[1,1],[0.75,1],[0.5,1],[0.25,1],[0,1],[0,0.75],[0,0.5],[0,0.25]];outlineConnect=0;gradientColor=none;html=1;whiteSpace=wrap;fontSize=12;fontStyle=0;container=1;pointerEvents=0;collapsible=0;recursiveResize=0;shape=mxgraph.aws4.group;grIcon=mxgraph.aws4.group_account;strokeColor=#CD2264;fillColor=none;verticalAlign=top;align=left;spacingLeft=30;fontColor=#CD2264;dashed=0;" parent="ol1TH0Oiye4qKC3WjHIc-46" vertex="1">
          <mxGeometry width="1535" height="490" as="geometry" />
        </mxCell>
        <mxCell id="ol1TH0Oiye4qKC3WjHIc-33" value="learnaws.co.in" style="outlineConnect=0;dashed=0;verticalLabelPosition=bottom;verticalAlign=top;align=center;html=1;shape=mxgraph.aws3.route_53;fillColor=#F58536;gradientColor=none;" parent="ol1TH0Oiye4qKC3WjHIc-32" vertex="1">
          <mxGeometry x="754.5" y="370" width="70.5" height="85.5" as="geometry" />
        </mxCell>
        <mxCell id="ol1TH0Oiye4qKC3WjHIc-39" value="&lt;font color=&quot;#ff0000&quot;&gt;VPC (us-east-1)&lt;/font&gt;" style="points=[[0,0],[0.25,0],[0.5,0],[0.75,0],[1,0],[1,0.25],[1,0.5],[1,0.75],[1,1],[0.75,1],[0.5,1],[0.25,1],[0,1],[0,0.75],[0,0.5],[0,0.25]];outlineConnect=0;gradientColor=none;html=1;whiteSpace=wrap;fontSize=12;fontStyle=0;container=1;pointerEvents=0;collapsible=0;recursiveResize=0;shape=mxgraph.aws4.group;grIcon=mxgraph.aws4.group_vpc;strokeColor=#248814;fillColor=none;verticalAlign=top;align=left;spacingLeft=30;fontColor=#AAB7B8;dashed=0;" parent="ol1TH0Oiye4qKC3WjHIc-32" vertex="1">
          <mxGeometry x="825" y="50" width="685" height="280" as="geometry" />
        </mxCell>
        <mxCell id="ol1TH0Oiye4qKC3WjHIc-40" value="Public subnet" style="points=[[0,0],[0.25,0],[0.5,0],[0.75,0],[1,0],[1,0.25],[1,0.5],[1,0.75],[1,1],[0.75,1],[0.5,1],[0.25,1],[0,1],[0,0.75],[0,0.5],[0,0.25]];outlineConnect=0;gradientColor=none;html=1;whiteSpace=wrap;fontSize=12;fontStyle=0;container=1;pointerEvents=0;collapsible=0;recursiveResize=0;shape=mxgraph.aws4.group;grIcon=mxgraph.aws4.group_security_group;grStroke=0;strokeColor=#248814;fillColor=#E9F3E6;verticalAlign=top;align=left;spacingLeft=30;fontColor=#248814;dashed=0;" parent="ol1TH0Oiye4qKC3WjHIc-39" vertex="1">
          <mxGeometry x="80" y="40" width="240" height="200" as="geometry" />
        </mxCell>
        <mxCell id="ol1TH0Oiye4qKC3WjHIc-41" value="" style="outlineConnect=0;dashed=0;verticalLabelPosition=bottom;verticalAlign=top;align=center;html=1;shape=mxgraph.aws3.application_load_balancer;fillColor=#F58534;gradientColor=none;" parent="ol1TH0Oiye4qKC3WjHIc-40" vertex="1">
          <mxGeometry x="86" y="64" width="69" height="72" as="geometry" />
        </mxCell>
        <mxCell id="ol1TH0Oiye4qKC3WjHIc-42" value="Private subnet" style="points=[[0,0],[0.25,0],[0.5,0],[0.75,0],[1,0],[1,0.25],[1,0.5],[1,0.75],[1,1],[0.75,1],[0.5,1],[0.25,1],[0,1],[0,0.75],[0,0.5],[0,0.25]];outlineConnect=0;gradientColor=none;html=1;whiteSpace=wrap;fontSize=12;fontStyle=0;container=1;pointerEvents=0;collapsible=0;recursiveResize=0;shape=mxgraph.aws4.group;grIcon=mxgraph.aws4.group_security_group;grStroke=0;strokeColor=#147EBA;fillColor=#E6F2F8;verticalAlign=top;align=left;spacingLeft=30;fontColor=#147EBA;dashed=0;" parent="ol1TH0Oiye4qKC3WjHIc-39" vertex="1">
          <mxGeometry x="400" y="40" width="240" height="200" as="geometry" />
        </mxCell>
        <mxCell id="ol1TH0Oiye4qKC3WjHIc-43" value="" style="outlineConnect=0;dashed=0;verticalLabelPosition=bottom;verticalAlign=top;align=center;html=1;shape=mxgraph.aws3.ec2;fillColor=#F58534;gradientColor=none;" parent="ol1TH0Oiye4qKC3WjHIc-42" vertex="1">
          <mxGeometry x="82" y="54" width="76.5" height="93" as="geometry" />
        </mxCell>
        <mxCell id="ol1TH0Oiye4qKC3WjHIc-44" style="edgeStyle=orthogonalEdgeStyle;rounded=0;orthogonalLoop=1;jettySize=auto;html=1;" parent="ol1TH0Oiye4qKC3WjHIc-39" source="ol1TH0Oiye4qKC3WjHIc-43" target="ol1TH0Oiye4qKC3WjHIc-41" edge="1">
          <mxGeometry relative="1" as="geometry" />
        </mxCell>
        <mxCell id="ol1TH0Oiye4qKC3WjHIc-45" style="edgeStyle=orthogonalEdgeStyle;rounded=0;orthogonalLoop=1;jettySize=auto;html=1;fontSize=22;" parent="ol1TH0Oiye4qKC3WjHIc-32" source="ol1TH0Oiye4qKC3WjHIc-41" target="ol1TH0Oiye4qKC3WjHIc-33" edge="1">
          <mxGeometry relative="1" as="geometry">
            <Array as="points">
              <mxPoint x="1026" y="413" />
            </Array>
          </mxGeometry>
        </mxCell>
        <mxCell id="ol1TH0Oiye4qKC3WjHIc-34" style="edgeStyle=orthogonalEdgeStyle;rounded=0;orthogonalLoop=1;jettySize=auto;html=1;" parent="ol1TH0Oiye4qKC3WjHIc-46" source="ol1TH0Oiye4qKC3WjHIc-28" target="ol1TH0Oiye4qKC3WjHIc-33" edge="1">
          <mxGeometry relative="1" as="geometry">
            <Array as="points">
              <mxPoint x="320" y="413" />
            </Array>
          </mxGeometry>
        </mxCell>
        <mxCell id="ol1TH0Oiye4qKC3WjHIc-35" style="edgeStyle=orthogonalEdgeStyle;rounded=0;orthogonalLoop=1;jettySize=auto;html=1;entryX=0.5;entryY=1;entryDx=0;entryDy=0;entryPerimeter=0;" parent="ol1TH0Oiye4qKC3WjHIc-46" source="ol1TH0Oiye4qKC3WjHIc-36" target="ol1TH0Oiye4qKC3WjHIc-33" edge="1">
          <mxGeometry relative="1" as="geometry" />
        </mxCell>
        <mxCell id="ol1TH0Oiye4qKC3WjHIc-36" value="" style="verticalLabelPosition=bottom;html=1;verticalAlign=top;align=center;strokeColor=none;fillColor=#00BEF2;shape=mxgraph.azure.user;" parent="ol1TH0Oiye4qKC3WjHIc-46" vertex="1">
          <mxGeometry x="734.75" y="540" width="110" height="100" as="geometry" />
        </mxCell>
        <mxCell id="OiRbNnKHqj_yDOIGWmKT-3" value="&lt;font style=&quot;font-size: 20px;&quot;&gt;&lt;b&gt;Allowed values 0-255&lt;br&gt;0- 0%&lt;br&gt;255 - 100%&lt;/b&gt;&lt;/font&gt;" style="text;html=1;align=center;verticalAlign=middle;resizable=0;points=[];autosize=1;strokeColor=none;fillColor=none;" parent="ol1TH0Oiye4qKC3WjHIc-46" vertex="1">
          <mxGeometry x="1040" y="520" width="220" height="90" as="geometry" />
        </mxCell>
        <mxCell id="ol1TH0Oiye4qKC3WjHIc-66" value="" style="group" parent="1" vertex="1" connectable="0">
          <mxGeometry x="50" y="2350" width="1535" height="690" as="geometry" />
        </mxCell>
        <mxCell id="ol1TH0Oiye4qKC3WjHIc-67" value="VPC (ap-south-1)" style="points=[[0,0],[0.25,0],[0.5,0],[0.75,0],[1,0],[1,0.25],[1,0.5],[1,0.75],[1,1],[0.75,1],[0.5,1],[0.25,1],[0,1],[0,0.75],[0,0.5],[0,0.25]];outlineConnect=0;gradientColor=none;html=1;whiteSpace=wrap;fontSize=12;fontStyle=0;container=1;pointerEvents=0;collapsible=0;recursiveResize=0;shape=mxgraph.aws4.group;grIcon=mxgraph.aws4.group_vpc;strokeColor=#248814;fillColor=none;verticalAlign=top;align=left;spacingLeft=30;fontColor=#AAB7B8;dashed=0;" parent="ol1TH0Oiye4qKC3WjHIc-66" vertex="1">
          <mxGeometry x="100" y="50" width="685" height="280" as="geometry" />
        </mxCell>
        <mxCell id="ol1TH0Oiye4qKC3WjHIc-68" value="Public subnet" style="points=[[0,0],[0.25,0],[0.5,0],[0.75,0],[1,0],[1,0.25],[1,0.5],[1,0.75],[1,1],[0.75,1],[0.5,1],[0.25,1],[0,1],[0,0.75],[0,0.5],[0,0.25]];outlineConnect=0;gradientColor=none;html=1;whiteSpace=wrap;fontSize=12;fontStyle=0;container=1;pointerEvents=0;collapsible=0;recursiveResize=0;shape=mxgraph.aws4.group;grIcon=mxgraph.aws4.group_security_group;grStroke=0;strokeColor=#248814;fillColor=#E9F3E6;verticalAlign=top;align=left;spacingLeft=30;fontColor=#248814;dashed=0;" parent="ol1TH0Oiye4qKC3WjHIc-67" vertex="1">
          <mxGeometry x="80" y="40" width="240" height="200" as="geometry" />
        </mxCell>
        <mxCell id="ol1TH0Oiye4qKC3WjHIc-69" value="" style="outlineConnect=0;dashed=0;verticalLabelPosition=bottom;verticalAlign=top;align=center;html=1;shape=mxgraph.aws3.application_load_balancer;fillColor=#F58534;gradientColor=none;" parent="ol1TH0Oiye4qKC3WjHIc-68" vertex="1">
          <mxGeometry x="86" y="64" width="69" height="72" as="geometry" />
        </mxCell>
        <mxCell id="ol1TH0Oiye4qKC3WjHIc-70" value="Private subnet" style="points=[[0,0],[0.25,0],[0.5,0],[0.75,0],[1,0],[1,0.25],[1,0.5],[1,0.75],[1,1],[0.75,1],[0.5,1],[0.25,1],[0,1],[0,0.75],[0,0.5],[0,0.25]];outlineConnect=0;gradientColor=none;html=1;whiteSpace=wrap;fontSize=12;fontStyle=0;container=1;pointerEvents=0;collapsible=0;recursiveResize=0;shape=mxgraph.aws4.group;grIcon=mxgraph.aws4.group_security_group;grStroke=0;strokeColor=#147EBA;fillColor=#E6F2F8;verticalAlign=top;align=left;spacingLeft=30;fontColor=#147EBA;dashed=0;" parent="ol1TH0Oiye4qKC3WjHIc-67" vertex="1">
          <mxGeometry x="400" y="40" width="240" height="200" as="geometry" />
        </mxCell>
        <mxCell id="ol1TH0Oiye4qKC3WjHIc-73" value="AWS Account" style="points=[[0,0],[0.25,0],[0.5,0],[0.75,0],[1,0],[1,0.25],[1,0.5],[1,0.75],[1,1],[0.75,1],[0.5,1],[0.25,1],[0,1],[0,0.75],[0,0.5],[0,0.25]];outlineConnect=0;gradientColor=none;html=1;whiteSpace=wrap;fontSize=12;fontStyle=0;container=1;pointerEvents=0;collapsible=0;recursiveResize=0;shape=mxgraph.aws4.group;grIcon=mxgraph.aws4.group_account;strokeColor=#CD2264;fillColor=none;verticalAlign=top;align=left;spacingLeft=30;fontColor=#CD2264;dashed=0;" parent="ol1TH0Oiye4qKC3WjHIc-66" vertex="1">
          <mxGeometry width="1535" height="490" as="geometry" />
        </mxCell>
        <mxCell id="ol1TH0Oiye4qKC3WjHIc-74" value="learnaws.co.in" style="outlineConnect=0;dashed=0;verticalLabelPosition=bottom;verticalAlign=top;align=center;html=1;shape=mxgraph.aws3.route_53;fillColor=#F58536;gradientColor=none;" parent="ol1TH0Oiye4qKC3WjHIc-73" vertex="1">
          <mxGeometry x="754.5" y="370" width="70.5" height="85.5" as="geometry" />
        </mxCell>
        <mxCell id="ol1TH0Oiye4qKC3WjHIc-75" value="VPC (us-east-1)" style="points=[[0,0],[0.25,0],[0.5,0],[0.75,0],[1,0],[1,0.25],[1,0.5],[1,0.75],[1,1],[0.75,1],[0.5,1],[0.25,1],[0,1],[0,0.75],[0,0.5],[0,0.25]];outlineConnect=0;gradientColor=none;html=1;whiteSpace=wrap;fontSize=12;fontStyle=0;container=1;pointerEvents=0;collapsible=0;recursiveResize=0;shape=mxgraph.aws4.group;grIcon=mxgraph.aws4.group_vpc;strokeColor=#248814;fillColor=none;verticalAlign=top;align=left;spacingLeft=30;fontColor=#AAB7B8;dashed=0;" parent="ol1TH0Oiye4qKC3WjHIc-73" vertex="1">
          <mxGeometry x="825" y="50" width="685" height="280" as="geometry" />
        </mxCell>
        <mxCell id="ol1TH0Oiye4qKC3WjHIc-76" value="Public subnet" style="points=[[0,0],[0.25,0],[0.5,0],[0.75,0],[1,0],[1,0.25],[1,0.5],[1,0.75],[1,1],[0.75,1],[0.5,1],[0.25,1],[0,1],[0,0.75],[0,0.5],[0,0.25]];outlineConnect=0;gradientColor=none;html=1;whiteSpace=wrap;fontSize=12;fontStyle=0;container=1;pointerEvents=0;collapsible=0;recursiveResize=0;shape=mxgraph.aws4.group;grIcon=mxgraph.aws4.group_security_group;grStroke=0;strokeColor=#248814;fillColor=#E9F3E6;verticalAlign=top;align=left;spacingLeft=30;fontColor=#248814;dashed=0;" parent="ol1TH0Oiye4qKC3WjHIc-75" vertex="1">
          <mxGeometry x="80" y="40" width="240" height="200" as="geometry" />
        </mxCell>
        <mxCell id="ol1TH0Oiye4qKC3WjHIc-77" value="" style="outlineConnect=0;dashed=0;verticalLabelPosition=bottom;verticalAlign=top;align=center;html=1;shape=mxgraph.aws3.application_load_balancer;fillColor=#F58534;gradientColor=none;" parent="ol1TH0Oiye4qKC3WjHIc-76" vertex="1">
          <mxGeometry x="86" y="64" width="69" height="72" as="geometry" />
        </mxCell>
        <mxCell id="ol1TH0Oiye4qKC3WjHIc-78" value="Private subnet" style="points=[[0,0],[0.25,0],[0.5,0],[0.75,0],[1,0],[1,0.25],[1,0.5],[1,0.75],[1,1],[0.75,1],[0.5,1],[0.25,1],[0,1],[0,0.75],[0,0.5],[0,0.25]];outlineConnect=0;gradientColor=none;html=1;whiteSpace=wrap;fontSize=12;fontStyle=0;container=1;pointerEvents=0;collapsible=0;recursiveResize=0;shape=mxgraph.aws4.group;grIcon=mxgraph.aws4.group_security_group;grStroke=0;strokeColor=#147EBA;fillColor=#E6F2F8;verticalAlign=top;align=left;spacingLeft=30;fontColor=#147EBA;dashed=0;" parent="ol1TH0Oiye4qKC3WjHIc-75" vertex="1">
          <mxGeometry x="400" y="40" width="240" height="200" as="geometry" />
        </mxCell>
        <mxCell id="ol1TH0Oiye4qKC3WjHIc-79" value="" style="outlineConnect=0;dashed=0;verticalLabelPosition=bottom;verticalAlign=top;align=center;html=1;shape=mxgraph.aws3.ec2;fillColor=#F58534;gradientColor=none;" parent="ol1TH0Oiye4qKC3WjHIc-78" vertex="1">
          <mxGeometry x="82" y="54" width="76.5" height="93" as="geometry" />
        </mxCell>
        <mxCell id="ol1TH0Oiye4qKC3WjHIc-80" style="edgeStyle=orthogonalEdgeStyle;rounded=0;orthogonalLoop=1;jettySize=auto;html=1;" parent="ol1TH0Oiye4qKC3WjHIc-75" source="ol1TH0Oiye4qKC3WjHIc-79" target="ol1TH0Oiye4qKC3WjHIc-77" edge="1">
          <mxGeometry relative="1" as="geometry" />
        </mxCell>
        <mxCell id="ol1TH0Oiye4qKC3WjHIc-81" style="edgeStyle=orthogonalEdgeStyle;rounded=0;orthogonalLoop=1;jettySize=auto;html=1;fontSize=22;" parent="ol1TH0Oiye4qKC3WjHIc-73" source="ol1TH0Oiye4qKC3WjHIc-77" target="ol1TH0Oiye4qKC3WjHIc-74" edge="1">
          <mxGeometry relative="1" as="geometry">
            <Array as="points">
              <mxPoint x="1026" y="413" />
            </Array>
          </mxGeometry>
        </mxCell>
        <mxCell id="ol1TH0Oiye4qKC3WjHIc-116" value="" style="verticalLabelPosition=bottom;html=1;verticalAlign=top;align=center;strokeColor=none;fillColor=#00BEF2;shape=mxgraph.azure.healthy;fontSize=22;fontColor=#000000;" parent="ol1TH0Oiye4qKC3WjHIc-73" vertex="1">
          <mxGeometry x="455" y="390" width="50" height="45" as="geometry" />
        </mxCell>
        <mxCell id="ktTSRSvxEKgHIYXrvL31-3" value="" style="outlineConnect=0;dashed=0;verticalLabelPosition=bottom;verticalAlign=top;align=center;html=1;shape=mxgraph.aws3.auto_scaling;fillColor=#F58534;gradientColor=none;" parent="ol1TH0Oiye4qKC3WjHIc-73" vertex="1">
          <mxGeometry x="509" y="154" width="79.5" height="76.5" as="geometry" />
        </mxCell>
        <mxCell id="ol1TH0Oiye4qKC3WjHIc-82" style="edgeStyle=orthogonalEdgeStyle;rounded=0;orthogonalLoop=1;jettySize=auto;html=1;" parent="ol1TH0Oiye4qKC3WjHIc-66" source="ol1TH0Oiye4qKC3WjHIc-69" target="ol1TH0Oiye4qKC3WjHIc-74" edge="1">
          <mxGeometry relative="1" as="geometry">
            <Array as="points">
              <mxPoint x="320" y="413" />
            </Array>
          </mxGeometry>
        </mxCell>
        <mxCell id="ol1TH0Oiye4qKC3WjHIc-83" style="edgeStyle=orthogonalEdgeStyle;rounded=0;orthogonalLoop=1;jettySize=auto;html=1;entryX=0.5;entryY=1;entryDx=0;entryDy=0;entryPerimeter=0;" parent="ol1TH0Oiye4qKC3WjHIc-66" source="ol1TH0Oiye4qKC3WjHIc-84" target="ol1TH0Oiye4qKC3WjHIc-74" edge="1">
          <mxGeometry relative="1" as="geometry" />
        </mxCell>
        <mxCell id="ol1TH0Oiye4qKC3WjHIc-84" value="" style="verticalLabelPosition=bottom;html=1;verticalAlign=top;align=center;strokeColor=none;fillColor=#00BEF2;shape=mxgraph.azure.user;" parent="ol1TH0Oiye4qKC3WjHIc-66" vertex="1">
          <mxGeometry x="735" y="537" width="110" height="100" as="geometry" />
        </mxCell>
        <mxCell id="ol1TH0Oiye4qKC3WjHIc-119" value="&lt;b&gt;Secondary&lt;/b&gt;" style="text;html=1;align=center;verticalAlign=middle;resizable=0;points=[];autosize=1;strokeColor=none;fillColor=none;fontSize=22;fontColor=#000000;" parent="ol1TH0Oiye4qKC3WjHIc-66" vertex="1">
          <mxGeometry x="895" y="430" width="140" height="40" as="geometry" />
        </mxCell>
        <mxCell id="ol1TH0Oiye4qKC3WjHIc-118" value="" style="shadow=0;dashed=0;html=1;strokeColor=none;fillColor=#4495D1;labelPosition=center;verticalLabelPosition=bottom;verticalAlign=top;align=center;outlineConnect=0;shape=mxgraph.veeam.failover_plan;fontSize=22;fontColor=#000000;" parent="ol1TH0Oiye4qKC3WjHIc-66" vertex="1">
          <mxGeometry x="860" y="422.8" width="38.4" height="54.4" as="geometry" />
        </mxCell>
        <mxCell id="ktTSRSvxEKgHIYXrvL31-1" value="" style="outlineConnect=0;dashed=0;verticalLabelPosition=bottom;verticalAlign=top;align=center;html=1;shape=mxgraph.aws3.ec2;fillColor=#F58534;gradientColor=none;" parent="ol1TH0Oiye4qKC3WjHIc-66" vertex="1">
          <mxGeometry x="592" y="200" width="76.5" height="93" as="geometry" />
        </mxCell>
        <mxCell id="ol1TH0Oiye4qKC3WjHIc-71" value="" style="outlineConnect=0;dashed=0;verticalLabelPosition=bottom;verticalAlign=top;align=center;html=1;shape=mxgraph.aws3.ec2;fillColor=#F58534;gradientColor=none;" parent="ol1TH0Oiye4qKC3WjHIc-66" vertex="1">
          <mxGeometry x="603.5" y="90" width="76.5" height="93" as="geometry" />
        </mxCell>
        <mxCell id="ol1TH0Oiye4qKC3WjHIc-72" style="edgeStyle=orthogonalEdgeStyle;rounded=0;orthogonalLoop=1;jettySize=auto;html=1;" parent="ol1TH0Oiye4qKC3WjHIc-66" source="ol1TH0Oiye4qKC3WjHIc-71" target="ol1TH0Oiye4qKC3WjHIc-69" edge="1">
          <mxGeometry relative="1" as="geometry" />
        </mxCell>
        <mxCell id="ktTSRSvxEKgHIYXrvL31-2" style="edgeStyle=orthogonalEdgeStyle;rounded=0;orthogonalLoop=1;jettySize=auto;html=1;entryX=1;entryY=0.5;entryDx=0;entryDy=0;entryPerimeter=0;" parent="ol1TH0Oiye4qKC3WjHIc-66" source="ktTSRSvxEKgHIYXrvL31-1" target="ol1TH0Oiye4qKC3WjHIc-69" edge="1">
          <mxGeometry relative="1" as="geometry" />
        </mxCell>
        <mxCell id="ol1TH0Oiye4qKC3WjHIc-85" value="" style="group" parent="1" vertex="1" connectable="0">
          <mxGeometry x="40" y="3170" width="1535" height="690" as="geometry" />
        </mxCell>
        <mxCell id="ol1TH0Oiye4qKC3WjHIc-86" value="VPC (ap-south-1)" style="points=[[0,0],[0.25,0],[0.5,0],[0.75,0],[1,0],[1,0.25],[1,0.5],[1,0.75],[1,1],[0.75,1],[0.5,1],[0.25,1],[0,1],[0,0.75],[0,0.5],[0,0.25]];outlineConnect=0;gradientColor=none;html=1;whiteSpace=wrap;fontSize=12;fontStyle=0;container=1;pointerEvents=0;collapsible=0;recursiveResize=0;shape=mxgraph.aws4.group;grIcon=mxgraph.aws4.group_vpc;strokeColor=#248814;fillColor=none;verticalAlign=top;align=left;spacingLeft=30;fontColor=#AAB7B8;dashed=0;" parent="ol1TH0Oiye4qKC3WjHIc-85" vertex="1">
          <mxGeometry x="100" y="50" width="685" height="280" as="geometry" />
        </mxCell>
        <mxCell id="ol1TH0Oiye4qKC3WjHIc-87" value="Public subnet" style="points=[[0,0],[0.25,0],[0.5,0],[0.75,0],[1,0],[1,0.25],[1,0.5],[1,0.75],[1,1],[0.75,1],[0.5,1],[0.25,1],[0,1],[0,0.75],[0,0.5],[0,0.25]];outlineConnect=0;gradientColor=none;html=1;whiteSpace=wrap;fontSize=12;fontStyle=0;container=1;pointerEvents=0;collapsible=0;recursiveResize=0;shape=mxgraph.aws4.group;grIcon=mxgraph.aws4.group_security_group;grStroke=0;strokeColor=#248814;fillColor=#E9F3E6;verticalAlign=top;align=left;spacingLeft=30;fontColor=#248814;dashed=0;" parent="ol1TH0Oiye4qKC3WjHIc-86" vertex="1">
          <mxGeometry x="80" y="40" width="240" height="200" as="geometry" />
        </mxCell>
        <mxCell id="ol1TH0Oiye4qKC3WjHIc-88" value="" style="outlineConnect=0;dashed=0;verticalLabelPosition=bottom;verticalAlign=top;align=center;html=1;shape=mxgraph.aws3.application_load_balancer;fillColor=#F58534;gradientColor=none;" parent="ol1TH0Oiye4qKC3WjHIc-87" vertex="1">
          <mxGeometry x="86" y="64" width="69" height="72" as="geometry" />
        </mxCell>
        <mxCell id="ol1TH0Oiye4qKC3WjHIc-89" value="Private subnet" style="points=[[0,0],[0.25,0],[0.5,0],[0.75,0],[1,0],[1,0.25],[1,0.5],[1,0.75],[1,1],[0.75,1],[0.5,1],[0.25,1],[0,1],[0,0.75],[0,0.5],[0,0.25]];outlineConnect=0;gradientColor=none;html=1;whiteSpace=wrap;fontSize=12;fontStyle=0;container=1;pointerEvents=0;collapsible=0;recursiveResize=0;shape=mxgraph.aws4.group;grIcon=mxgraph.aws4.group_security_group;grStroke=0;strokeColor=#147EBA;fillColor=#E6F2F8;verticalAlign=top;align=left;spacingLeft=30;fontColor=#147EBA;dashed=0;" parent="ol1TH0Oiye4qKC3WjHIc-86" vertex="1">
          <mxGeometry x="400" y="40" width="240" height="200" as="geometry" />
        </mxCell>
        <mxCell id="ol1TH0Oiye4qKC3WjHIc-90" value="" style="outlineConnect=0;dashed=0;verticalLabelPosition=bottom;verticalAlign=top;align=center;html=1;shape=mxgraph.aws3.ec2;fillColor=#F58534;gradientColor=none;" parent="ol1TH0Oiye4qKC3WjHIc-89" vertex="1">
          <mxGeometry x="82" y="54" width="76.5" height="93" as="geometry" />
        </mxCell>
        <mxCell id="ol1TH0Oiye4qKC3WjHIc-91" style="edgeStyle=orthogonalEdgeStyle;rounded=0;orthogonalLoop=1;jettySize=auto;html=1;" parent="ol1TH0Oiye4qKC3WjHIc-86" source="ol1TH0Oiye4qKC3WjHIc-90" target="ol1TH0Oiye4qKC3WjHIc-88" edge="1">
          <mxGeometry relative="1" as="geometry" />
        </mxCell>
        <mxCell id="ol1TH0Oiye4qKC3WjHIc-92" value="AWS Account" style="points=[[0,0],[0.25,0],[0.5,0],[0.75,0],[1,0],[1,0.25],[1,0.5],[1,0.75],[1,1],[0.75,1],[0.5,1],[0.25,1],[0,1],[0,0.75],[0,0.5],[0,0.25]];outlineConnect=0;gradientColor=none;html=1;whiteSpace=wrap;fontSize=12;fontStyle=0;container=1;pointerEvents=0;collapsible=0;recursiveResize=0;shape=mxgraph.aws4.group;grIcon=mxgraph.aws4.group_account;strokeColor=#CD2264;fillColor=none;verticalAlign=top;align=left;spacingLeft=30;fontColor=#CD2264;dashed=0;" parent="ol1TH0Oiye4qKC3WjHIc-85" vertex="1">
          <mxGeometry width="1535" height="490" as="geometry" />
        </mxCell>
        <mxCell id="ol1TH0Oiye4qKC3WjHIc-93" value="learnaws.co.in" style="outlineConnect=0;dashed=0;verticalLabelPosition=bottom;verticalAlign=top;align=center;html=1;shape=mxgraph.aws3.route_53;fillColor=#F58536;gradientColor=none;" parent="ol1TH0Oiye4qKC3WjHIc-92" vertex="1">
          <mxGeometry x="754.5" y="370" width="70.5" height="85.5" as="geometry" />
        </mxCell>
        <mxCell id="ol1TH0Oiye4qKC3WjHIc-94" value="VPC (us-east-1)" style="points=[[0,0],[0.25,0],[0.5,0],[0.75,0],[1,0],[1,0.25],[1,0.5],[1,0.75],[1,1],[0.75,1],[0.5,1],[0.25,1],[0,1],[0,0.75],[0,0.5],[0,0.25]];outlineConnect=0;gradientColor=none;html=1;whiteSpace=wrap;fontSize=12;fontStyle=0;container=1;pointerEvents=0;collapsible=0;recursiveResize=0;shape=mxgraph.aws4.group;grIcon=mxgraph.aws4.group_vpc;strokeColor=#248814;fillColor=none;verticalAlign=top;align=left;spacingLeft=30;fontColor=#AAB7B8;dashed=0;" parent="ol1TH0Oiye4qKC3WjHIc-92" vertex="1">
          <mxGeometry x="825" y="50" width="685" height="280" as="geometry" />
        </mxCell>
        <mxCell id="ol1TH0Oiye4qKC3WjHIc-95" value="Public subnet" style="points=[[0,0],[0.25,0],[0.5,0],[0.75,0],[1,0],[1,0.25],[1,0.5],[1,0.75],[1,1],[0.75,1],[0.5,1],[0.25,1],[0,1],[0,0.75],[0,0.5],[0,0.25]];outlineConnect=0;gradientColor=none;html=1;whiteSpace=wrap;fontSize=12;fontStyle=0;container=1;pointerEvents=0;collapsible=0;recursiveResize=0;shape=mxgraph.aws4.group;grIcon=mxgraph.aws4.group_security_group;grStroke=0;strokeColor=#248814;fillColor=#E9F3E6;verticalAlign=top;align=left;spacingLeft=30;fontColor=#248814;dashed=0;" parent="ol1TH0Oiye4qKC3WjHIc-94" vertex="1">
          <mxGeometry x="80" y="40" width="240" height="200" as="geometry" />
        </mxCell>
        <mxCell id="ol1TH0Oiye4qKC3WjHIc-96" value="" style="outlineConnect=0;dashed=0;verticalLabelPosition=bottom;verticalAlign=top;align=center;html=1;shape=mxgraph.aws3.application_load_balancer;fillColor=#F58534;gradientColor=none;" parent="ol1TH0Oiye4qKC3WjHIc-95" vertex="1">
          <mxGeometry x="86" y="64" width="69" height="72" as="geometry" />
        </mxCell>
        <mxCell id="ol1TH0Oiye4qKC3WjHIc-97" value="Private subnet" style="points=[[0,0],[0.25,0],[0.5,0],[0.75,0],[1,0],[1,0.25],[1,0.5],[1,0.75],[1,1],[0.75,1],[0.5,1],[0.25,1],[0,1],[0,0.75],[0,0.5],[0,0.25]];outlineConnect=0;gradientColor=none;html=1;whiteSpace=wrap;fontSize=12;fontStyle=0;container=1;pointerEvents=0;collapsible=0;recursiveResize=0;shape=mxgraph.aws4.group;grIcon=mxgraph.aws4.group_security_group;grStroke=0;strokeColor=#147EBA;fillColor=#E6F2F8;verticalAlign=top;align=left;spacingLeft=30;fontColor=#147EBA;dashed=0;" parent="ol1TH0Oiye4qKC3WjHIc-94" vertex="1">
          <mxGeometry x="400" y="40" width="240" height="200" as="geometry" />
        </mxCell>
        <mxCell id="ol1TH0Oiye4qKC3WjHIc-98" value="" style="outlineConnect=0;dashed=0;verticalLabelPosition=bottom;verticalAlign=top;align=center;html=1;shape=mxgraph.aws3.ec2;fillColor=#F58534;gradientColor=none;" parent="ol1TH0Oiye4qKC3WjHIc-97" vertex="1">
          <mxGeometry x="82" y="54" width="76.5" height="93" as="geometry" />
        </mxCell>
        <mxCell id="ol1TH0Oiye4qKC3WjHIc-99" style="edgeStyle=orthogonalEdgeStyle;rounded=0;orthogonalLoop=1;jettySize=auto;html=1;" parent="ol1TH0Oiye4qKC3WjHIc-94" source="ol1TH0Oiye4qKC3WjHIc-98" target="ol1TH0Oiye4qKC3WjHIc-96" edge="1">
          <mxGeometry relative="1" as="geometry" />
        </mxCell>
        <mxCell id="ol1TH0Oiye4qKC3WjHIc-100" style="edgeStyle=orthogonalEdgeStyle;rounded=0;orthogonalLoop=1;jettySize=auto;html=1;fontSize=22;" parent="ol1TH0Oiye4qKC3WjHIc-92" source="ol1TH0Oiye4qKC3WjHIc-96" target="ol1TH0Oiye4qKC3WjHIc-93" edge="1">
          <mxGeometry relative="1" as="geometry">
            <Array as="points">
              <mxPoint x="1026" y="413" />
            </Array>
          </mxGeometry>
        </mxCell>
        <mxCell id="ol1TH0Oiye4qKC3WjHIc-101" style="edgeStyle=orthogonalEdgeStyle;rounded=0;orthogonalLoop=1;jettySize=auto;html=1;" parent="ol1TH0Oiye4qKC3WjHIc-85" source="ol1TH0Oiye4qKC3WjHIc-88" target="ol1TH0Oiye4qKC3WjHIc-93" edge="1">
          <mxGeometry relative="1" as="geometry">
            <Array as="points">
              <mxPoint x="320" y="413" />
            </Array>
          </mxGeometry>
        </mxCell>
        <mxCell id="ol1TH0Oiye4qKC3WjHIc-102" style="edgeStyle=orthogonalEdgeStyle;rounded=0;orthogonalLoop=1;jettySize=auto;html=1;entryX=0.5;entryY=1;entryDx=0;entryDy=0;entryPerimeter=0;" parent="ol1TH0Oiye4qKC3WjHIc-85" source="ol1TH0Oiye4qKC3WjHIc-103" target="ol1TH0Oiye4qKC3WjHIc-93" edge="1">
          <mxGeometry relative="1" as="geometry" />
        </mxCell>
        <mxCell id="ol1TH0Oiye4qKC3WjHIc-103" value="* (apart from India ==&amp;gt; Nv)" style="verticalLabelPosition=bottom;html=1;verticalAlign=top;align=center;strokeColor=none;fillColor=#00BEF2;shape=mxgraph.azure.user;" parent="ol1TH0Oiye4qKC3WjHIc-85" vertex="1">
          <mxGeometry x="900" y="530" width="110" height="100" as="geometry" />
        </mxCell>
        <mxCell id="OiRbNnKHqj_yDOIGWmKT-2" style="edgeStyle=orthogonalEdgeStyle;rounded=0;orthogonalLoop=1;jettySize=auto;html=1;entryX=0.29;entryY=0.91;entryDx=0;entryDy=0;entryPerimeter=0;" parent="ol1TH0Oiye4qKC3WjHIc-85" source="OiRbNnKHqj_yDOIGWmKT-1" target="ol1TH0Oiye4qKC3WjHIc-93" edge="1">
          <mxGeometry relative="1" as="geometry" />
        </mxCell>
        <mxCell id="OiRbNnKHqj_yDOIGWmKT-1" value="India --&amp;gt; Mumbai" style="verticalLabelPosition=bottom;html=1;verticalAlign=top;align=center;strokeColor=none;fillColor=#00BEF2;shape=mxgraph.azure.user;" parent="ol1TH0Oiye4qKC3WjHIc-85" vertex="1">
          <mxGeometry x="570" y="530" width="110" height="100" as="geometry" />
        </mxCell>
        <mxCell id="ol1TH0Oiye4qKC3WjHIc-104" value="&lt;font color=&quot;#ff2f05&quot;&gt;255&lt;/font&gt;" style="text;html=1;align=center;verticalAlign=middle;resizable=0;points=[];autosize=1;strokeColor=none;fillColor=none;fontSize=22;" parent="1" vertex="1">
          <mxGeometry x="630" y="1284" width="60" height="40" as="geometry" />
        </mxCell>
        <mxCell id="ol1TH0Oiye4qKC3WjHIc-105" value="0" style="text;html=1;align=center;verticalAlign=middle;resizable=0;points=[];autosize=1;strokeColor=none;fillColor=none;fontSize=22;fontColor=#FF2F05;" parent="1" vertex="1">
          <mxGeometry x="950" y="1280" width="40" height="40" as="geometry" />
        </mxCell>
        <mxCell id="ol1TH0Oiye4qKC3WjHIc-106" value="(0-255)" style="text;html=1;align=center;verticalAlign=middle;resizable=0;points=[];autosize=1;strokeColor=none;fillColor=none;fontSize=22;fontColor=#FF2F05;" parent="1" vertex="1">
          <mxGeometry x="205" y="821" width="90" height="40" as="geometry" />
        </mxCell>
        <mxCell id="ol1TH0Oiye4qKC3WjHIc-107" value="Latency RP" style="text;html=1;align=center;verticalAlign=middle;resizable=0;points=[];autosize=1;strokeColor=none;fillColor=none;fontSize=22;fontColor=#FF2F05;" parent="1" vertex="1">
          <mxGeometry x="40" y="1560" width="140" height="40" as="geometry" />
        </mxCell>
        <mxCell id="ol1TH0Oiye4qKC3WjHIc-48" value="VPC (ap-south-1)" style="points=[[0,0],[0.25,0],[0.5,0],[0.75,0],[1,0],[1,0.25],[1,0.5],[1,0.75],[1,1],[0.75,1],[0.5,1],[0.25,1],[0,1],[0,0.75],[0,0.5],[0,0.25]];outlineConnect=0;gradientColor=none;html=1;whiteSpace=wrap;fontSize=12;fontStyle=0;container=1;pointerEvents=0;collapsible=0;recursiveResize=0;shape=mxgraph.aws4.group;grIcon=mxgraph.aws4.group_vpc;strokeColor=#248814;fillColor=none;verticalAlign=top;align=left;spacingLeft=30;fontColor=#AAB7B8;dashed=0;" parent="1" vertex="1">
          <mxGeometry x="140" y="1650" width="685" height="280" as="geometry" />
        </mxCell>
        <mxCell id="ol1TH0Oiye4qKC3WjHIc-49" value="Public subnet" style="points=[[0,0],[0.25,0],[0.5,0],[0.75,0],[1,0],[1,0.25],[1,0.5],[1,0.75],[1,1],[0.75,1],[0.5,1],[0.25,1],[0,1],[0,0.75],[0,0.5],[0,0.25]];outlineConnect=0;gradientColor=none;html=1;whiteSpace=wrap;fontSize=12;fontStyle=0;container=1;pointerEvents=0;collapsible=0;recursiveResize=0;shape=mxgraph.aws4.group;grIcon=mxgraph.aws4.group_security_group;grStroke=0;strokeColor=#248814;fillColor=#E9F3E6;verticalAlign=top;align=left;spacingLeft=30;fontColor=#248814;dashed=0;" parent="ol1TH0Oiye4qKC3WjHIc-48" vertex="1">
          <mxGeometry x="80" y="40" width="240" height="200" as="geometry" />
        </mxCell>
        <mxCell id="ol1TH0Oiye4qKC3WjHIc-50" value="" style="outlineConnect=0;dashed=0;verticalLabelPosition=bottom;verticalAlign=top;align=center;html=1;shape=mxgraph.aws3.application_load_balancer;fillColor=#F58534;gradientColor=none;" parent="ol1TH0Oiye4qKC3WjHIc-49" vertex="1">
          <mxGeometry x="86" y="64" width="69" height="72" as="geometry" />
        </mxCell>
        <mxCell id="ol1TH0Oiye4qKC3WjHIc-51" value="Private subnet" style="points=[[0,0],[0.25,0],[0.5,0],[0.75,0],[1,0],[1,0.25],[1,0.5],[1,0.75],[1,1],[0.75,1],[0.5,1],[0.25,1],[0,1],[0,0.75],[0,0.5],[0,0.25]];outlineConnect=0;gradientColor=none;html=1;whiteSpace=wrap;fontSize=12;fontStyle=0;container=1;pointerEvents=0;collapsible=0;recursiveResize=0;shape=mxgraph.aws4.group;grIcon=mxgraph.aws4.group_security_group;grStroke=0;strokeColor=#147EBA;fillColor=#E6F2F8;verticalAlign=top;align=left;spacingLeft=30;fontColor=#147EBA;dashed=0;" parent="ol1TH0Oiye4qKC3WjHIc-48" vertex="1">
          <mxGeometry x="400" y="40" width="240" height="200" as="geometry" />
        </mxCell>
        <mxCell id="ol1TH0Oiye4qKC3WjHIc-52" value="" style="outlineConnect=0;dashed=0;verticalLabelPosition=bottom;verticalAlign=top;align=center;html=1;shape=mxgraph.aws3.ec2;fillColor=#F58534;gradientColor=none;" parent="ol1TH0Oiye4qKC3WjHIc-51" vertex="1">
          <mxGeometry x="82" y="54" width="76.5" height="93" as="geometry" />
        </mxCell>
        <mxCell id="ol1TH0Oiye4qKC3WjHIc-53" style="edgeStyle=orthogonalEdgeStyle;rounded=0;orthogonalLoop=1;jettySize=auto;html=1;" parent="ol1TH0Oiye4qKC3WjHIc-48" source="ol1TH0Oiye4qKC3WjHIc-52" target="ol1TH0Oiye4qKC3WjHIc-50" edge="1">
          <mxGeometry relative="1" as="geometry" />
        </mxCell>
        <mxCell id="ol1TH0Oiye4qKC3WjHIc-54" value="AWS Account" style="points=[[0,0],[0.25,0],[0.5,0],[0.75,0],[1,0],[1,0.25],[1,0.5],[1,0.75],[1,1],[0.75,1],[0.5,1],[0.25,1],[0,1],[0,0.75],[0,0.5],[0,0.25]];outlineConnect=0;gradientColor=none;html=1;whiteSpace=wrap;fontSize=12;fontStyle=0;container=1;pointerEvents=0;collapsible=0;recursiveResize=0;shape=mxgraph.aws4.group;grIcon=mxgraph.aws4.group_account;strokeColor=#CD2264;fillColor=none;verticalAlign=top;align=left;spacingLeft=30;fontColor=#CD2264;dashed=0;" parent="1" vertex="1">
          <mxGeometry x="40" y="1600" width="1535" height="490" as="geometry" />
        </mxCell>
        <mxCell id="ol1TH0Oiye4qKC3WjHIc-55" value="learnaws.co.in" style="outlineConnect=0;dashed=0;verticalLabelPosition=bottom;verticalAlign=top;align=center;html=1;shape=mxgraph.aws3.route_53;fillColor=#F58536;gradientColor=none;" parent="ol1TH0Oiye4qKC3WjHIc-54" vertex="1">
          <mxGeometry x="754.5" y="370" width="70.5" height="85.5" as="geometry" />
        </mxCell>
        <mxCell id="ol1TH0Oiye4qKC3WjHIc-56" value="VPC (us-east-1)" style="points=[[0,0],[0.25,0],[0.5,0],[0.75,0],[1,0],[1,0.25],[1,0.5],[1,0.75],[1,1],[0.75,1],[0.5,1],[0.25,1],[0,1],[0,0.75],[0,0.5],[0,0.25]];outlineConnect=0;gradientColor=none;html=1;whiteSpace=wrap;fontSize=12;fontStyle=0;container=1;pointerEvents=0;collapsible=0;recursiveResize=0;shape=mxgraph.aws4.group;grIcon=mxgraph.aws4.group_vpc;strokeColor=#248814;fillColor=none;verticalAlign=top;align=left;spacingLeft=30;fontColor=#AAB7B8;dashed=0;" parent="ol1TH0Oiye4qKC3WjHIc-54" vertex="1">
          <mxGeometry x="825" y="50" width="685" height="280" as="geometry" />
        </mxCell>
        <mxCell id="ol1TH0Oiye4qKC3WjHIc-57" value="Public subnet" style="points=[[0,0],[0.25,0],[0.5,0],[0.75,0],[1,0],[1,0.25],[1,0.5],[1,0.75],[1,1],[0.75,1],[0.5,1],[0.25,1],[0,1],[0,0.75],[0,0.5],[0,0.25]];outlineConnect=0;gradientColor=none;html=1;whiteSpace=wrap;fontSize=12;fontStyle=0;container=1;pointerEvents=0;collapsible=0;recursiveResize=0;shape=mxgraph.aws4.group;grIcon=mxgraph.aws4.group_security_group;grStroke=0;strokeColor=#248814;fillColor=#E9F3E6;verticalAlign=top;align=left;spacingLeft=30;fontColor=#248814;dashed=0;" parent="ol1TH0Oiye4qKC3WjHIc-56" vertex="1">
          <mxGeometry x="80" y="40" width="240" height="200" as="geometry" />
        </mxCell>
        <mxCell id="ol1TH0Oiye4qKC3WjHIc-58" value="" style="outlineConnect=0;dashed=0;verticalLabelPosition=bottom;verticalAlign=top;align=center;html=1;shape=mxgraph.aws3.application_load_balancer;fillColor=#F58534;gradientColor=none;" parent="ol1TH0Oiye4qKC3WjHIc-57" vertex="1">
          <mxGeometry x="86" y="64" width="69" height="72" as="geometry" />
        </mxCell>
        <mxCell id="ol1TH0Oiye4qKC3WjHIc-59" value="Private subnet" style="points=[[0,0],[0.25,0],[0.5,0],[0.75,0],[1,0],[1,0.25],[1,0.5],[1,0.75],[1,1],[0.75,1],[0.5,1],[0.25,1],[0,1],[0,0.75],[0,0.5],[0,0.25]];outlineConnect=0;gradientColor=none;html=1;whiteSpace=wrap;fontSize=12;fontStyle=0;container=1;pointerEvents=0;collapsible=0;recursiveResize=0;shape=mxgraph.aws4.group;grIcon=mxgraph.aws4.group_security_group;grStroke=0;strokeColor=#147EBA;fillColor=#E6F2F8;verticalAlign=top;align=left;spacingLeft=30;fontColor=#147EBA;dashed=0;" parent="ol1TH0Oiye4qKC3WjHIc-56" vertex="1">
          <mxGeometry x="400" y="40" width="240" height="200" as="geometry" />
        </mxCell>
        <mxCell id="ol1TH0Oiye4qKC3WjHIc-60" value="" style="outlineConnect=0;dashed=0;verticalLabelPosition=bottom;verticalAlign=top;align=center;html=1;shape=mxgraph.aws3.ec2;fillColor=#F58534;gradientColor=none;" parent="ol1TH0Oiye4qKC3WjHIc-59" vertex="1">
          <mxGeometry x="82" y="54" width="76.5" height="93" as="geometry" />
        </mxCell>
        <mxCell id="ol1TH0Oiye4qKC3WjHIc-61" style="edgeStyle=orthogonalEdgeStyle;rounded=0;orthogonalLoop=1;jettySize=auto;html=1;" parent="ol1TH0Oiye4qKC3WjHIc-56" source="ol1TH0Oiye4qKC3WjHIc-60" target="ol1TH0Oiye4qKC3WjHIc-58" edge="1">
          <mxGeometry relative="1" as="geometry" />
        </mxCell>
        <mxCell id="ol1TH0Oiye4qKC3WjHIc-62" style="edgeStyle=orthogonalEdgeStyle;rounded=0;orthogonalLoop=1;jettySize=auto;html=1;fontSize=22;" parent="ol1TH0Oiye4qKC3WjHIc-54" source="ol1TH0Oiye4qKC3WjHIc-58" target="ol1TH0Oiye4qKC3WjHIc-55" edge="1">
          <mxGeometry relative="1" as="geometry">
            <Array as="points">
              <mxPoint x="1026" y="413" />
            </Array>
          </mxGeometry>
        </mxCell>
        <mxCell id="ol1TH0Oiye4qKC3WjHIc-63" style="edgeStyle=orthogonalEdgeStyle;rounded=0;orthogonalLoop=1;jettySize=auto;html=1;" parent="1" source="ol1TH0Oiye4qKC3WjHIc-50" target="ol1TH0Oiye4qKC3WjHIc-55" edge="1">
          <mxGeometry relative="1" as="geometry">
            <Array as="points">
              <mxPoint x="360" y="2013" />
            </Array>
          </mxGeometry>
        </mxCell>
        <mxCell id="ol1TH0Oiye4qKC3WjHIc-64" style="edgeStyle=orthogonalEdgeStyle;rounded=0;orthogonalLoop=1;jettySize=auto;html=1;entryX=0.5;entryY=1;entryDx=0;entryDy=0;entryPerimeter=0;" parent="1" source="ol1TH0Oiye4qKC3WjHIc-65" target="ol1TH0Oiye4qKC3WjHIc-55" edge="1">
          <mxGeometry relative="1" as="geometry">
            <Array as="points">
              <mxPoint x="660" y="2056" />
            </Array>
          </mxGeometry>
        </mxCell>
        <mxCell id="ol1TH0Oiye4qKC3WjHIc-65" value="" style="verticalLabelPosition=bottom;html=1;verticalAlign=top;align=center;strokeColor=none;fillColor=#00BEF2;shape=mxgraph.azure.user;" parent="1" vertex="1">
          <mxGeometry x="620" y="2170" width="110" height="100" as="geometry" />
        </mxCell>
        <mxCell id="ol1TH0Oiye4qKC3WjHIc-108" value="" style="verticalLabelPosition=bottom;html=1;verticalAlign=top;align=center;strokeColor=none;fillColor=#00BEF2;shape=mxgraph.azure.user;" parent="1" vertex="1">
          <mxGeometry x="960" y="2160" width="110" height="100" as="geometry" />
        </mxCell>
        <mxCell id="ol1TH0Oiye4qKC3WjHIc-109" style="edgeStyle=orthogonalEdgeStyle;rounded=0;orthogonalLoop=1;jettySize=auto;html=1;entryX=0.5;entryY=0;entryDx=0;entryDy=0;entryPerimeter=0;fontSize=22;fontColor=#FF2F05;" parent="1" source="ol1TH0Oiye4qKC3WjHIc-55" target="ol1TH0Oiye4qKC3WjHIc-108" edge="1">
          <mxGeometry relative="1" as="geometry">
            <Array as="points">
              <mxPoint x="830" y="2070" />
              <mxPoint x="1015" y="2070" />
            </Array>
          </mxGeometry>
        </mxCell>
        <mxCell id="ol1TH0Oiye4qKC3WjHIc-110" value="Singapore" style="text;html=1;align=center;verticalAlign=middle;resizable=0;points=[];autosize=1;strokeColor=none;fillColor=none;fontSize=22;fontColor=#FF2F05;" parent="1" vertex="1">
          <mxGeometry x="1030" y="2130" width="120" height="40" as="geometry" />
        </mxCell>
        <mxCell id="ol1TH0Oiye4qKC3WjHIc-111" value="SA" style="text;html=1;align=center;verticalAlign=middle;resizable=0;points=[];autosize=1;strokeColor=none;fillColor=none;fontSize=22;fontColor=#FF2F05;" parent="1" vertex="1">
          <mxGeometry x="535" y="2130" width="50" height="40" as="geometry" />
        </mxCell>
        <mxCell id="ol1TH0Oiye4qKC3WjHIc-112" value="latency :10 ms --&amp;gt; Nv&lt;br&gt;Mumbai : 2 ms&amp;nbsp;" style="text;html=1;align=center;verticalAlign=middle;resizable=0;points=[];autosize=1;strokeColor=none;fillColor=none;fontSize=22;fontColor=#FF2F05;" parent="1" vertex="1">
          <mxGeometry x="1100" y="2175" width="230" height="70" as="geometry" />
        </mxCell>
        <mxCell id="ol1TH0Oiye4qKC3WjHIc-113" value="latency : 3 ms --&amp;gt; Nv&lt;br&gt;Mumbai : 20 ms&amp;nbsp;" style="text;html=1;align=center;verticalAlign=middle;resizable=0;points=[];autosize=1;strokeColor=none;fillColor=none;fontSize=22;fontColor=#FF2F05;" parent="1" vertex="1">
          <mxGeometry x="355" y="2175" width="230" height="70" as="geometry" />
        </mxCell>
        <mxCell id="ol1TH0Oiye4qKC3WjHIc-114" value="&lt;font color=&quot;#000000&quot;&gt;Failover RP&lt;/font&gt;" style="text;html=1;align=center;verticalAlign=middle;resizable=0;points=[];autosize=1;strokeColor=none;fillColor=none;fontSize=22;fontColor=#FF2F05;" parent="1" vertex="1">
          <mxGeometry x="36" y="2309" width="140" height="40" as="geometry" />
        </mxCell>
        <mxCell id="ol1TH0Oiye4qKC3WjHIc-115" value="&lt;b&gt;PRIMARY&lt;/b&gt;" style="text;html=1;align=center;verticalAlign=middle;resizable=0;points=[];autosize=1;strokeColor=none;fillColor=none;fontSize=22;fontColor=#000000;" parent="1" vertex="1">
          <mxGeometry x="580" y="2770" width="120" height="40" as="geometry" />
        </mxCell>
        <mxCell id="Wlnyd90YuThGhzLRY_OX-1" value="&lt;font color=&quot;#000000&quot;&gt;GeoLocation RP&lt;/font&gt;" style="text;html=1;align=center;verticalAlign=middle;resizable=0;points=[];autosize=1;strokeColor=none;fillColor=none;fontSize=22;fontColor=#FF2F05;" parent="1" vertex="1">
          <mxGeometry x="30" y="3129" width="180" height="40" as="geometry" />
        </mxCell>
      </root>
    </mxGraphModel>
  </diagram>
</mxfile>
